<svg width="390" height="1998" viewBox="0 0 390 1998" xmlns="http://www.w3.org/2000/svg"><rect width="390" height="1998" fill="#f8fafc"/><g transform="translate(0 0)"><rect x="27" y="207.35999999999999" width="154.56" height="48" rx="8" fill="#431407" opacity="1"/><rect x="27" y="319.68" width="114.24000000000001" height="22" rx="8" fill="#fed7aa" opacity="1"/><rect x="27" y="440.64" width="60.48" height="48" rx="8" fill="#f97316" opacity="1"/><rect x="230.1" y="120.96000000000001" width="117" height="604.8" rx="24" fill="#f97316" opacity="0.2"/><circle cx="288.6" cy="414.71999999999997" r="50.7" fill="#f97316" opacity="0.55"/><text x="195" y="42" text-anchor="middle" font-family="sans-serif" font-size="14" fill="#0f172a" opacity="0.72">كل مشاويرك في مكان واحد</text></g><g transform="translate(0 864)"><rect x="27" y="102.06" width="336" height="124.74" rx="16" fill="#bbf7d0" opacity="0.38" stroke="#bbf7d0"/><rect x="47" y="126.06" width="184.8" height="20" rx="8" fill="#052e16" opacity="1"/><rect x="47" y="164.06" width="252" height="14" rx="7" fill="#bbf7d0" opacity="1"/><rect x="47" y="202.06" width="117.6" height="34" rx="8" fill="#22c55e" opacity="1"/><rect x="27" y="260.82000000000005" width="336" height="124.74" rx="16" fill="#f0fdf4" opacity="1" stroke="#bbf7d0"/><rect x="47" y="284.82000000000005" width="184.8" height="20" rx="8" fill="#052e16" opacity="1"/><rect x="47" y="322.82000000000005" width="252" height="14" rx="7" fill="#bbf7d0" opacity="1"/><rect x="47" y="360.82000000000005" width="117.6" height="34" rx="8" fill="#22c55e" opacity="1"/><text x="195" y="42" text-anchor="middle" font-family="sans-serif" font-size="14" fill="#0f172a" opacity="0.72">نحن في خدمتك</text></g><g transform="translate(0 1431)"><rect x="27" y="102.06" width="336" height="124.74" rx="16" fill="#f5d0fe" opacity="0.38" stroke="#f5d0fe"/><rect x="47" y="126.06" width="184.8" height="20" rx="8" fill="#3b0764" opacity="1"/><rect x="47" y="164.06" width="252" height="14" rx="7" fill="#f5d0fe" opacity="1"/><rect x="47" y="202.06" width="117.6" height="34" rx="8" fill="#d946ef" opacity="1"/><rect x="27" y="260.82000000000005" width="336" height="124.74" rx="16" fill="#fdf4ff" opacity="1" stroke="#f5d0fe"/><rect x="47" y="284.82000000000005" width="184.8" height="20" rx="8" fill="#3b0764" opacity="1"/><rect x="47" y="322.82000000000005" width="252" height="14" rx="7" fill="#f5d0fe" opacity="1"/><rect x="47" y="360.82000000000005" width="117.6" height="34" rx="8" fill="#d946ef" opacity="1"/><text x="195" y="42" text-anchor="middle" font-family="sans-serif" font-size="14" fill="#0f172a" opacity="0.72">ابدأ رحلتك الآن</text></g><rect x="1" y="1" width="388" height="1996" fill="none" stroke="#0f172a" stroke-opacity="0.12"/></svg>