<svg width="390" height="2754" viewBox="0 0 390 2754" xmlns="http://www.w3.org/2000/svg"><rect width="390" height="2754" fill="#f8fafc"/><g transform="translate(0 0)"><rect x="27" y="223.56" width="336" height="170" rx="16" fill="#cbd5e1" opacity="0.38" stroke="#cbd5e1"/><rect x="47" y="247.56" width="184.8" height="20" rx="8" fill="#0f172a" opacity="1"/><rect x="47" y="285.56" width="252" height="14" rx="7" fill="#cbd5e1" opacity="1"/><rect x="47" y="323.56" width="117.6" height="34" rx="8" fill="#38bdf8" opacity="1"/><rect x="27" y="443.56" width="336" height="170" rx="16" fill="#f8fafc" opacity="1" stroke="#cbd5e1"/><rect x="47" y="467.56" width="184.8" height="20" rx="8" fill="#0f172a" opacity="1"/><rect x="47" y="505.56" width="252" height="14" rx="7" fill="#cbd5e1" opacity="1"/><rect x="47" y="543.56" width="117.6" height="34" rx="8" fill="#38bdf8" opacity="1"/><text x="195" y="42" text-anchor="middle" font-family="sans-serif" font-size="14" fill="#0f172a" opacity="0.72">A browser that gets out of the way</text></g><g transform="translate(0 1242)"><rect x="27" y="199.26" width="336" height="170" rx="16" fill="#fed7aa" opacity="0.38" stroke="#fed7aa"/><rect x="47" y="223.26" width="184.8" height="20" rx="8" fill="#431407" opacity="1"/><rect x="47" y="261.26" width="252" height="14" rx="7" fill="#fed7aa" opacity="1"/><rect x="47" y="299.26" width="117.6" height="34" rx="8" fill="#f97316" opacity="1"/><rect x="27" y="419.26" width="336" height="170" rx="16" fill="#fff7ed" opacity="1" stroke="#fed7aa"/><rect x="47" y="443.26" width="184.8" height="20" rx="8" fill="#431407" opacity="1"/><rect x="47" y="481.26" width="252" height="14" rx="7" fill="#fed7aa" opacity="1"/><rect x="47" y="519.26" width="117.6" height="34" rx="8" fill="#f97316" opacity="1"/><text x="195" y="42" text-anchor="middle" font-family="sans-serif" font-size="14" fill="#0f172a" opacity="0.72">Spaces for every part of life</text></g><g transform="translate(0 2349)"><rect x="27" y="89.1" width="43.68" height="18" rx="8" fill="#f9fafb" opacity="1"/><rect x="27" y="162" width="33.6" height="12" rx="6" fill="#374151" opacity="1"/><rect x="27" y="210.6" width="40.32" height="12" rx="6" fill="#374151" opacity="1"/><rect x="27" y="259.2" width="26.88" height="12" rx="6" fill="#374151" opacity="1"/><rect x="111" y="89.1" width="43.68" height="18" rx="8" fill="#f9fafb" opacity="1"/><rect x="111" y="162" width="33.6" height="12" rx="6" fill="#374151" opacity="1"/><rect x="111" y="210.6" width="40.32" height="12" rx="6" fill="#374151" opacity="1"/><rect x="111" y="259.2" width="26.88" height="12" rx="6" fill="#374151" opacity="1"/><rect x="195" y="89.1" width="43.68" height="18" rx="8" fill="#f9fafb" opacity="1"/><rect x="195" y="162" width="33.6" height="12" rx="6" fill="#374151" opacity="1"/><rect x="195" y="210.6" width="40.32" height="12" rx="6" fill="#374151" opacity="1"/><rect x="195" y="259.2" width="26.88" height="12" rx="6" fill="#374151" opacity="1"/><rect x="279" y="89.1" width="43.68" height="18" rx="8" fill="#f9fafb" opacity="1"/><rect x="279" y="162" width="33.6" height="12" rx="6" fill="#374151" opacity="1"/><rect x="279" y="210.6" width="40.32" height="12" rx="6" fill="#374151" opacity="1"/><rect x="279" y="259.2" width="26.88" height="12" rx="6" fill="#374151" opacity="1"/><text x="195" y="42" text-anchor="middle" font-family="sans-serif" font-size="14" fill="#0f172a" opacity="0.72">Keep exploring</text></g><rect x="1" y="1" width="388" height="2752" fill="none" stroke="#0f172a" stroke-opacity="0.12"/></svg>