<svg width="390" height="2646" viewBox="0 0 390 2646" xmlns="http://www.w3.org/2000/svg"><rect width="390" height="2646" fill="#f8fafc"/><g transform="translate(0 0)"><rect x="27" y="126.36" width="336" height="154.44" rx="16" fill="#fed7aa" opacity="0.38" stroke="#fed7aa"/><rect x="47" y="150.36" width="184.8" height="20" rx="8" fill="#431407" opacity="1"/><rect x="47" y="188.36" width="252" height="14" rx="7" fill="#fed7aa" opacity="1"/><rect x="47" y="226.36" width="117.6" height="34" rx="8" fill="#f97316" opacity="1"/><rect x="27" y="322.92" width="336" height="154.44" rx="16" fill="#fff7ed" opacity="1" stroke="#fed7aa"/><rect x="47" y="346.92" width="184.8" height="20" rx="8" fill="#431407" opacity="1"/><rect x="47" y="384.92" width="252" height="14" rx="7" fill="#fed7aa" opacity="1"/><rect x="47" y="422.92" width="117.6" height="34" rx="8" fill="#f97316" opacity="1"/><text x="195" y="42" text-anchor="middle" font-family="sans-serif" font-size="14" fill="#0f172a" opacity="0.72">Workflows that fit your business</text></g><g transform="translate(0 702)"><rect x="27" y="213.84" width="336" height="170" rx="16" fill="#bbf7d0" opacity="0.38" stroke="#bbf7d0"/><rect x="47" y="237.84" width="184.8" height="20" rx="8" fill="#052e16" opacity="1"/><rect x="47" y="275.84000000000003" width="252" height="14" rx="7" fill="#bbf7d0" opacity="1"/><rect x="47" y="313.84000000000003" width="117.6" height="34" rx="8" fill="#22c55e" opacity="1"/><rect x="27" y="433.84000000000003" width="336" height="170" rx="16" fill="#f0fdf4" opacity="1" stroke="#bbf7d0"/><rect x="47" y="457.84000000000003" width="184.8" height="20" rx="8" fill="#052e16" opacity="1"/><rect x="47" y="495.84000000000003" width="252" height="14" rx="7" fill="#bbf7d0" opacity="1"/><rect x="47" y="533.84" width="117.6" height="34" rx="8" fill="#22c55e" opacity="1"/><text x="195" y="42" text-anchor="middle" font-family="sans-serif" font-size="14" fill="#0f172a" opacity="0.72">See the work in motion</text></g><g transform="translate(0 1890)"><rect x="27" y="136.07999999999998" width="336" height="166.32" rx="16" fill="#f5d0fe" opacity="0.38" stroke="#f5d0fe"/><rect x="47" y="160.07999999999998" width="184.8" height="20" rx="8" fill="#3b0764" opacity="1"/><rect x="47" y="198.07999999999998" width="252" height="14" rx="7" fill="#f5d0fe" opacity="1"/><rect x="47" y="236.07999999999998" width="117.6" height="34" rx="8" fill="#d946ef" opacity="1"/><rect x="27" y="347.76" width="336" height="166.32" rx="16" fill="#fdf4ff" opacity="1" stroke="#f5d0fe"/><rect x="47" y="371.76" width="184.8" height="20" rx="8" fill="#3b0764" opacity="1"/><rect x="47" y="409.76" width="252" height="14" rx="7" fill="#f5d0fe" opacity="1"/><rect x="47" y="447.76" width="117.6" height="34" rx="8" fill="#d946ef" opacity="1"/><text x="195" y="42" text-anchor="middle" font-family="sans-serif" font-size="14" fill="#0f172a" opacity="0.72">Talk to the team</text></g><rect x="1" y="1" width="388" height="2644" fill="none" stroke="#0f172a" stroke-opacity="0.12"/></svg>