<svg width="1440" height="1680" viewBox="0 0 1440 1680" xmlns="http://www.w3.org/2000/svg"><rect width="1440" height="1680" fill="#f8fafc"/><g transform="translate(0 0)"><rect x="101" y="38.4" width="259.2" height="24" rx="8" fill="#3b0764" opacity="1"/><rect x="734.2" y="44.4" width="144" height="14" rx="7" fill="#f5d0fe" opacity="1"/><rect x="950.2" y="44.4" width="144" height="14" rx="7" fill="#f5d0fe" opacity="1"/><rect x="1166.2" y="36" width="172.79999999999998" height="28" rx="8" fill="#d946ef" opacity="1"/><text x="720" y="42" text-anchor="middle" font-family="sans-serif" font-size="22" fill="#0f172a" opacity="0.72">تصفح العقارات</text></g><g transform="translate(0 120)"><rect x="101" y="153.6" width="569.48" height="48" rx="8" fill="#0f172a" opacity="1"/><rect x="101" y="236.8" width="420.92" height="22" rx="8" fill="#cbd5e1" opacity="1"/><rect x="101" y="326.4" width="222.84" height="48" rx="8" fill="#38bdf8" opacity="1"/><rect x="849.5999999999999" y="89.60000000000001" width="432" height="448" rx="24" fill="#38bdf8" opacity="0.2"/><circle cx="1065.6" cy="307.2" r="83.2" fill="#38bdf8" opacity="0.55"/><text x="720" y="42" text-anchor="middle" font-family="sans-serif" font-size="22" fill="#0f172a" opacity="0.72">اعثر على بيتك القادم</text></g><g transform="translate(0 760)"><rect x="101" y="165.6" width="396.6666666666667" height="170" rx="16" fill="#fed7aa" opacity="0.38" stroke="#fed7aa"/><rect x="121" y="189.6" width="218.16666666666669" height="20" rx="8" fill="#431407" opacity="1"/><rect x="121" y="227.6" width="297.5" height="14" rx="7" fill="#fed7aa" opacity="1"/><rect x="121" y="265.6" width="138.83333333333334" height="34" rx="8" fill="#f97316" opacity="1"/><rect x="521.6666666666667" y="165.6" width="396.6666666666667" height="170" rx="16" fill="#fff7ed" opacity="1" stroke="#fed7aa"/><rect x="541.6666666666667" y="189.6" width="218.16666666666669" height="20" rx="8" fill="#431407" opacity="1"/><rect x="541.6666666666667" y="227.6" width="297.5" height="14" rx="7" fill="#fed7aa" opacity="1"/><rect x="541.6666666666667" y="265.6" width="138.83333333333334" height="34" rx="8" fill="#f97316" opacity="1"/><rect x="942.3333333333334" y="165.6" width="396.6666666666667" height="170" rx="16" fill="#fed7aa" opacity="0.38" stroke="#fed7aa"/><rect x="962.3333333333334" y="189.6" width="218.16666666666669" height="20" rx="8" fill="#431407" opacity="1"/><rect x="962.3333333333334" y="227.6" width="297.5" height="14" rx="7" fill="#fed7aa" opacity="1"/><rect x="962.3333333333334" y="265.6" width="138.83333333333334" height="34" rx="8" fill="#f97316" opacity="1"/><rect x="101" y="385.6" width="396.6666666666667" height="170" rx="16" fill="#fff7ed" opacity="1" stroke="#fed7aa"/><rect x="121" y="409.6" width="218.16666666666669" height="20" rx="8" fill="#431407" opacity="1"/><rect x="121" y="447.6" width="297.5" height="14" rx="7" fill="#fed7aa" opacity="1"/><rect x="121" y="485.6" width="138.83333333333334" height="34" rx="8" fill="#f97316" opacity="1"/><rect x="521.6666666666667" y="385.6" width="396.6666666666667" height="170" rx="16" fill="#fed7aa" opacity="0.38" stroke="#fed7aa"/><rect x="541.6666666666667" y="409.6" width="218.16666666666669" height="20" rx="8" fill="#431407" opacity="1"/><rect x="541.6666666666667" y="447.6" width="297.5" height="14" rx="7" fill="#fed7aa" opacity="1"/><rect x="541.6666666666667" y="485.6" width="138.83333333333334" height="34" rx="8" fill="#f97316" opacity="1"/><rect x="942.3333333333334" y="385.6" width="396.6666666666667" height="170" rx="16" fill="#fff7ed" opacity="1" stroke="#fed7aa"/><rect x="962.3333333333334" y="409.6" width="218.16666666666669" height="20" rx="8" fill="#431407" opacity="1"/><rect x="962.3333333333334" y="447.6" width="297.5" height="14" rx="7" fill="#fed7aa" opacity="1"/><rect x="962.3333333333334" y="485.6" width="138.83333333333334" height="34" rx="8" fill="#f97316" opacity="1"/><text x="720" y="42" text-anchor="middle" font-family="sans-serif" font-size="22" fill="#0f172a" opacity="0.72">لماذا يختارنا الباحثون عن منزل</text></g><rect x="1" y="1" width="1438" height="1678" fill="none" stroke="#0f172a" stroke-opacity="0.12"/></svg>